<?xml version="1.0" encoding="utf-8"?><svg xmlns="http://www.w3.org/2000/svg" xmlns:xlink="http://www.w3.org/1999/xlink"><symbol viewBox="0 0 20.4 23" id="appliances" xmlns="http://www.w3.org/2000/svg"><path d="M13.8 0c-.4 0-.7.3-.7.7v4.8c-.3 0-.7-.1-1.1-.1V.7c0-.4-.3-.7-.7-.7-.4 0-.7.3-.7.7v4.7c-.4 0-.8.1-1.1.1V.7c0-.4-.3-.7-.7-.7-.4 0-.7.3-.7.7v6.8c0 1 .8 1.8 1.8 1.8h.5v12.6c0 .6.5 1.1 1.1 1.1.6 0 1.1-.5 1.1-1.1V9.3h.2c1 0 1.8-.8 1.8-1.8V.7c-.1-.4-.4-.7-.8-.7zM18.6 0c-1 0-1.8.8-1.8 1.8v20c0 .6.5 1.1 1.1 1.1.6 0 1.1-.5 1.1-1.1v-9.6c.8-.2 1.4-.9 1.4-1.8V1.8c0-1-.8-1.8-1.8-1.8zM6.8 5.3C6.8 2.4 4.9 0 3.4 0 2 0 0 2.4 0 5.3c0 2.4.7 3.9 2.4 4.3v12.3c0 .6.5 1.1 1.1 1.1.6 0 1.2-.5 1.2-1.1V9.6c1.6-.5 2.1-1.9 2.1-4.3z"/></symbol><symbol viewBox="0 0 9.6 16.4" id="arr-back" xmlns="http://www.w3.org/2000/svg"><path d="M8.2 16.4L0 8.2 8.2 0l1.4 1.4-6.8 6.8L9.6 15z"/></symbol><symbol viewBox="0 0 9.6 16.4" id="arr-next" xmlns="http://www.w3.org/2000/svg"><path d="M1.4 16.4L0 15l6.8-6.8L0 1.4 1.4 0l8.2 8.2z"/></symbol><symbol viewBox="0 0 9.8 15" id="baks" xmlns="http://www.w3.org/2000/svg"><path d="M4.4 15v-1.1C1.7 13.7 0 12.4 0 10.3h2.5c.1.9.8 1.6 1.9 1.7V8.6l-.9-.2C1.4 7.9.3 6.7.3 4.9c0-2.1 1.5-3.5 4.1-3.7V0h1.2v1.2c2.4.2 4 1.6 4 3.6H7.2c0-.8-.7-1.5-1.6-1.6v3.2l.9.2c2.2.5 3.3 1.6 3.3 3.5 0 2.2-1.5 3.6-4.2 3.8V15H4.4zm0-8.8v-3c-1 0-1.6.6-1.6 1.5 0 .7.5 1.2 1.6 1.5zm1.2 2.6V12c1.1-.1 1.8-.7 1.8-1.6 0-.9-.6-1.4-1.8-1.6z"/></symbol><symbol viewBox="0 0 25 25" id="call" xmlns="http://www.w3.org/2000/svg"><path d="M0 4.1c.1-.3.1-.6.3-.9 0-.2.1-.4.3-.6C1.3 1.8 2 1.1 2.9.5c.9-.6 1.9-.6 2.8 0 .9.6 1.5 1.4 2 2.2.3.5.6.9.8 1.5.4 1 .2 1.8-.5 2.6-.3.4-.6.7-1 1-.4.4-.5.9-.3 1.4.2.8.7 1.4 1.2 2.1 1.2 1.7 2.7 3.1 4.2 4.5 1 .9 1.9 1.7 3.1 2.3.2.1.4.2.6.2.7.2 1.2.1 1.7-.5.4-.4.8-.8 1.3-1.2.7-.4 1.4-.5 2.2-.2 1 .4 1.9 1 2.7 1.7.4.3.7.6.9 1 .7 1.1.7 2 0 3-.6.8-1.3 1.5-2.1 2.2-.8.7-1.7.7-2.6.7-2.3-.2-4.4-1.1-6.4-2.3-2.5-1.5-4.8-3.4-6.8-5.5-1.6-1.7-3.1-3.6-4.3-5.6-1.2-2-2.1-4-2.4-6.2V4.1z"/></symbol><symbol viewBox="0 0 33 20.2" id="card" xmlns="http://www.w3.org/2000/svg"><path d="M2.2 20.2C1 20.2 0 19.2 0 18V5.5c0-1.2 1-2.2 2.2-2.2h3.1v-1C5.4 1 6.4 0 7.6 0h23.2c.6 0 1.2.2 1.6.7.4.4.7 1 .7 1.6v12.5c0 1.2-1 2.2-2.2 2.2h-3.1v1c0 1.2-1 2.2-2.2 2.2H2.2zm25.4-4.4h3.1c.6 0 1.1-.5 1.1-1.1v-1.3h-4.2v2.4zm0-3.5h4.2V9.8h-4.2v2.5zM7.6 1.2c-.6 0-1.1.5-1.1 1v1h18.9c1.2 0 2.2 1 2.2 2.2v3.2h4.2V2.2c0-.6-.5-1.1-1.1-1.1H7.6z"/></symbol><symbol viewBox="0 0 19 19" id="clock" xmlns="http://www.w3.org/2000/svg"><path d="M18.3 5.8c-1-2.3-2.7-4-5.1-5C12 .3 10.8 0 9.5 0 8.2 0 7 .3 5.8.8c-2.3 1-4 2.7-5.1 5C.2 7 0 8.2 0 9.5c0 1.3.2 2.5.7 3.7 1 2.3 2.7 4 5.1 5.1 1.2.4 2.4.7 3.7.7s2.5-.3 3.7-.8c2.4-1 4.1-2.7 5.1-5.1.5-1.1.7-2.3.7-3.6 0-1.3-.2-2.5-.7-3.7zm-1.6 7.9c-.7 1.3-1.7 2.3-3 3-1.3.7-2.7 1.1-4.2 1.1-1.1 0-2.2-.2-3.2-.7-1-.4-1.9-1-2.7-1.8-.7-.7-1.3-1.6-1.8-2.7-.4-1-.7-2.1-.7-3.3 0-1.5.4-2.9 1.1-4.2C3 4 4 3 5.3 2.3 6.6 1.5 8 1.1 9.5 1.1s2.9.4 4.2 1.1C15 3 16 4 16.7 5.3c.7 1.3 1.1 2.7 1.1 4.2.1 1.5-.3 2.9-1.1 4.2z"/><path d="M10.1 9.4V4c0-.3-.3-.6-.6-.6s-.6.3-.6.6v5.6c0 .2 0 .3.2.5l3.1 3.1c.2.2.6.2.8 0 .2-.2.2-.6 0-.8l-2.9-3z"/></symbol><symbol viewBox="0 0 18.6 18.6" id="close" xmlns="http://www.w3.org/2000/svg"><path d="M.031 1.606L1.658-.021l16.97 16.97-1.626 1.627z"/><path d="M.034 17.024L17 .048l1.626 1.626L1.661 18.65z"/></symbol><symbol viewBox="0 0 28.9 23" id="delivery" xmlns="http://www.w3.org/2000/svg"><path d="M.9 0h11.7c.6 0 .5-.1.5.4s0 .4-.5.6c-.1.1-.3.2-.4.2-.1.1-.1.1-.1.2v5.5c0 .1-.1.3-.3.3h-10c-.2.1-.3 0-.3-.2V1.5c0-.1 0-.2-.1-.2-.2-.1-.3-.1-.5-.2C.5.8.5.9.5.4.5-.1.4 0 .9 0zm22.9 17.1c1.6 0 2.9 1.3 2.9 2.9 0 1.6-1.3 2.9-2.9 2.9-1.6 0-2.9-1.3-2.9-2.9 0-1.6 1.3-2.9 2.9-2.9zm-18.9 0c1.6 0 2.9 1.3 2.9 2.9 0 1.6-1.3 2.9-2.9 2.9C3.3 23 2 21.7 2 20.1c0-1.7 1.3-3 2.9-3zM.3 8.7h13.3c1.8 0 1.9-.4 1.1 1.2-.8 1.7-3.8 2.9-1.9 5.9 0 .1.1.1.2.1h6.6c.1 0 .2-.1.2-.2.2-2.3.2-4.7-.1-7.1-.2-1.2-.4-2.3-.6-3.5 0-.1-.1-.2-.2-.2h-1.1c-.1 0-.2-.1-.2-.2V3.5c0-.1.1-.2.2-.2H23c.1 0 .2.1.2.2-.2.9-.4 1.7-.6 2.6-.3 1.3-.4.9.7 1.3 3.9 1.4 5.9 5.6 5.6 10.2 0 .1-.1.2-.3.2h-1.4c-.1 0-.2-.1-.2-.2-1.2-2.8-5.2-2.8-6.3 0 0 .1-.1.2-.3.2H9c-.9 0-.8.1-1.2-.6-1.3-2.3-4.8-2.2-6 .2-.4.7-.7.5-.6-.2.6-2.6 1.2-4.5 3.2-6.5.4-.4.5-.4-.1-.4H.2c-.1 0-.3-.1-.3-.3.1-.2.1-.6.1-1 0-.2.1-.3.3-.3z"/></symbol><symbol viewBox="0 0 36.3 32.6" id="heart" xmlns="http://www.w3.org/2000/svg"><path d="M18 32.6l-15-15c-1.9-1.9-3-4.5-3-7.3 0-3.2 1.5-6.2 4-8.2C5.4 1 7.1.3 8.9.1c3.3-.4 6.4.6 8.7 2.9l.5.5.5-.5C20.9.7 24.1-.4 27.3.1c1.8.2 3.4.9 4.8 2 2.7 2.1 4.2 5.2 4.1 8.5-.1 2.6-1.2 5.2-3.2 7.2L18 32.6zM10.3 3c-.3 0-.7 0-1 .1-1.3.1-2.4.6-3.4 1.4C4 5.9 3 8 3 10.3c0 2 .8 3.8 2.2 5.2L18 28.4l13-12.7c1.4-1.4 2.3-3.3 2.3-5.1.1-2.4-1-4.6-2.9-6.1-1-.8-2.2-1.3-3.4-1.4-2.3-.3-4.6.5-6.2 2.1l-2.7 2.7-2.7-2.7C14.1 3.8 12.2 3 10.3 3z"/></symbol><symbol viewBox="0 0 18.5 18.5" id="info" xmlns="http://www.w3.org/2000/svg"><path d="M8.2 4.2c0-.5.4-1 1-1s1 .4 1 1c0 .5-.4 1-1 1s-1-.4-1-1zm.2 2.4H10v8H8.4v-8z"/><path d="M9.3 18.5C4.1 18.5 0 14.4 0 9.3S4.1 0 9.3 0s9.3 4.1 9.3 9.3-4.2 9.2-9.3 9.2zm0-17C5 1.5 1.5 5 1.5 9.3S5 17 9.3 17 17 13.5 17 9.3s-3.5-7.8-7.7-7.8z"/></symbol><symbol viewBox="0 0 37.2 35" id="kitchen" xmlns="http://www.w3.org/2000/svg"><path d="M10.5 23H7.1l-.2-.1c-4.1-1.1-6.9-4.8-6.9-9 0-5.4 4.5-9.4 10.5-9.4v3C6.2 7.5 3 10.2 3 13.9c0 2.8 1.8 5.3 4.5 6.1h3v3z"/><path d="M31.4 35H5.8V21.5h3V32h19.5V19h1.5c1.3 0 2.2-.6 2.7-1.1 1-1 1.6-2.4 1.6-4 0-2.1-.7-3.9-2.1-4.9-1.3-1-3.2-1.2-5.2-.6l-1.4.4-.4-1.4c-1-3-3.1-4.4-6.4-4.4-2.7 0-5.3 1.4-6.7 3.7-1.5 3.2-1.3 5.9.6 8.1l-2.3 1.9c-2.7-3.2-3-7.2-1-11.5l.1-.1c2-3.2 5.5-5.2 9.3-5.2 4 0 7.1 1.8 8.7 5.2 2.5-.4 4.8.1 6.6 1.4 2.1 1.6 3.3 4.2 3.3 7.3 0 2.4-.9 4.6-2.5 6.2-.9.9-2.1 1.5-3.3 1.8V35z"/><path d="M16.8 26.9h13v3h-13z"/></symbol><symbol viewBox="0 0 19.1 18" id="kitchen-2" xmlns="http://www.w3.org/2000/svg"><path d="M16.1 18h-13v-6.5C1.2 10.8 0 9.1 0 7.1c0-2.6 2.1-4.7 4.7-4.7H5C6.1.9 7.7 0 9.6 0c1.8 0 3.5.9 4.5 2.3l.2-.1v.2h.1c2.6 0 4.7 2.1 4.7 4.7 0 1.2-.4 2.3-1.2 3.1-.5.5-1.2.8-1.9.9V18zM4.6 16.5h9.9v-.9H7v-1.5h1.3v-2.5h1.5v2.5h.9v-2.5h1.5v2.5h2.3v-2.3h-.6v-1.5h.5c.2 0 .4 0 .6-.1v-.1h.4c1.3-.4 2.2-1.6 2.2-3 0-1.8-1.4-3.2-3.2-3.2h-1.1l-.1.1-.2-.5c-.7-1.2-2-2-3.5-2-2.2 0-4 1.8-4 4 0 .7.2 1.4.5 2l.2.4-1.2.8-.2-.4C4.3 7.4 4 6.5 4 5.5c0-.4 0-.8.1-1.1l.1-.5c-1.5.2-2.7 1.6-2.7 3.2 0 1.8 1.4 3.2 3.2 3.2h.5v1.5h-.6v4.7z"/></symbol><symbol viewBox="0 0 65.8 71.2" id="logo-part-1" xmlns="http://www.w3.org/2000/svg"><path d="M36.6 47.8c-2.7-5.6-4.6-11.5-1.9-18.6 2.4-6.2 8.1-10.6 14.7-11.7.8-.1 1.7-.2 2.4-.2 0-.1.1-.1.3 0 4.4-.1 8.5 1.4 11.8 3.9 2.3-1 2.6-3.7.4-6.7C57.8 5.7 47.4 0 35.6 0 15.9 0 0 15.9 0 35.6c0 19.7 15.9 35.6 35.6 35.6 5.2 0 9.7-2.1 13.6-5.4-5-5.4-9.3-11.3-12.6-18z"/><path d="M44.3 36.3c-.1 4.3 3.4 8.3 8.5 8.1 3.8-.1 7.6-3.5 7.6-8.1 0-4.2-3.7-8-8.1-8-4.3.1-8 3.7-8 8z"/></symbol><symbol viewBox="0 0 104.8 32.3" id="logo-part-2" xmlns="http://www.w3.org/2000/svg"><path d="M20.5 23.2c0 2.8-1 5.1-3.1 6.7-2 1.6-4.9 2.4-8.5 2.4-3.3 0-6.3-.6-8.9-1.9v-6.2c2.1.9 3.9 1.6 5.4 2s2.8.6 4 .6c1.5 0 2.6-.3 3.4-.8.8-.6 1.2-1.4 1.2-2.5 0-.6-.2-1.2-.5-1.6-.3-.5-.8-.9-1.5-1.4-.7-.4-2-1.2-4.1-2.1-1.9-.9-3.4-1.8-4.3-2.6-1-.8-1.7-1.8-2.3-2.9C.7 11.7.4 10.4.4 9c0-2.8.9-5 2.8-6.5C5.1.8 7.7 0 11 0c1.6 0 3.2.2 4.7.6 1.5.4 3 .9 4.6 1.6l-2.1 5.2C16.5 6.7 15.1 6.3 14 6c-1.1-.3-2.2-.4-3.2-.4-1.3 0-2.2.3-2.9.9-.7.6-1 1.4-1 2.3 0 .6.1 1.1.4 1.5s.7.9 1.3 1.3c.6.4 2 1.1 4.2 2.2 2.9 1.4 4.9 2.8 6 4.2 1.1 1.4 1.7 3.1 1.7 5.2zM46.7 10.3c0 3.4-1.1 6-3.2 7.7-2.1 1.8-5.1 2.7-9 2.7h-2.9v11.2H25V.5h10c3.8 0 6.7.8 8.7 2.5 2 1.6 3 4 3 7.3zm-15 5h2.2c2 0 3.6-.4 4.6-1.2 1-.8 1.5-2 1.5-3.5 0-1.6-.4-2.7-1.3-3.5-.9-.7-2.2-1.1-4-1.1h-3v9.3zM80 16.1c0 5.2-1.3 9.2-3.9 12-2.6 2.8-6.3 4.2-11.1 4.2s-8.5-1.4-11.1-4.2c-2.6-2.8-3.9-6.8-3.9-12s1.3-9.2 3.9-12C56.6 1.4 60.3 0 65.1 0c4.8 0 8.5 1.4 11.1 4.2 2.6 2.7 3.8 6.7 3.8 11.9zm-22.9 0c0 3.5.7 6.1 2 7.9 1.3 1.8 3.3 2.7 6 2.7 5.3 0 8-3.5 8-10.6S70.5 5.5 65.2 5.5c-2.6 0-4.6.9-6 2.7-1.4 1.8-2.1 4.4-2.1 7.9zM96.2 31.9h-6.7V6H81V.5h23.7V6h-8.5v25.9z"/></symbol><symbol viewBox="0 0 28.7 38" id="map-marker" xmlns="http://www.w3.org/2000/svg"><path d="M14.3 38c-.9 0-1.4-.5-1.9-1.1C7.9 32 4.6 27.6 2.3 22.8 1.2 20.5 0 17.7 0 14.4 0 7.9 4.9 1.8 11.2.4c.9-.2 2-.4 3-.3h.2c6.9 0 12.8 5 14.1 11.9.4 2.3.2 4.8-.8 7.5-2.5 7.1-7.2 12.8-11.5 17.5-.4.4-1 1-1.9 1 .1 0 .1 0 0 0zm-.5-35c-.6 0-1.3.1-2 .3C6.9 4.4 3 9.3 3 14.4c0 2.7 1 5.1 2 7.2 2.1 4.3 5.1 8.5 9.3 13 4.2-4.5 8.3-9.6 10.6-16.1.8-2.3 1-4.2.7-6-1-5.7-5.7-9.5-11.3-9.4h-.2c-.1-.1-.2-.1-.3-.1zm.7 18.4c-1.9 0-3.7-.7-5-2-1.3-1.3-2.1-3.2-2-5 0-3.8 3.1-6.9 6.9-6.9 3.8 0 7 3.2 7 6.9s-2.9 6.9-6.6 7h-.3zm-.2-10.9c-2.1 0-3.9 1.8-3.9 3.9 0 1.1.4 2.1 1.1 2.8.8.8 1.9 1.2 3.1 1.1 1.8-.1 3.7-1.7 3.7-4 0-2-1.8-3.8-4-3.8.1 0 .1 0 0 0z"/></symbol><symbol viewBox="0 0 14.6 19" id="map-marker-2" xmlns="http://www.w3.org/2000/svg"><path d="M14.6 7.4c.1 1.2-.3 2.3-.9 3.4-1.5 3.1-3.8 5.7-6.2 8.1-.2.2-.3.2-.5 0-2.7-2.7-5.2-5.5-6.6-9.1C-1.2 5.4 1.7.7 6.4.1c4.6-.6 8.3 3.1 8.2 7.3zM7.3 5C5.9 5 4.9 6.1 4.8 7.5 4.8 8.8 6 10 7.3 10c1.4 0 2.5-1.1 2.5-2.5S8.7 5 7.3 5z"/></symbol><symbol viewBox="0 0 28 18.5" id="menu" xmlns="http://www.w3.org/2000/svg"><path d="M0 0h28v2.5H0zM9 8h19v2.5H9zM0 16h28v2.5H0z"/></symbol><symbol viewBox="0 0 34 20.5" id="parking" xmlns="http://www.w3.org/2000/svg"><path d="M33.3 0h-9.1c-.1 0-.2.1-.2.2V8h.7V1c0-.1.1-.2.2-.2h8c.6 0 .5-.1.5.4v9.6c0 .2-.1.3-.3.3h-8.6c-.2 0-.3.1-.3.3v8.8c0 .2.1.3.3.3h9.3c.2 0 .3-.1.3-.3V.5C34-.1 34 0 33.3 0zM21.6 9.9c-1.1 0-1.4.3-2.2.8-.5.3-.3.4-.5-.2-.4-1.1-.7-2.3-1.1-3.4-.7-2.3-.8-2.4-3.2-2.4H7.2c-2.4 0-2.5.1-3.2 2.4-.3 1.1-.6 2.2-1 3.4-.2.6-.1.5-.5.2-.8-.5-1.1-.7-2.2-.8-.2 0-.3.2-.3.3 0 .5.1.9.1 1.4 0 .1.1.3.3.3h1.7c.6 0 .6-.1.2.4-.2.3-.4.6-.7.9 0 .1-.1.1-.1.2v3.3c0 .1 0 .2.1.2.4.1.6.3.9.5.2.1.2.1.2.4v2.5c0 .2.1.3.3.3h2.7c.2 0 .3-.1.3-.3v-2.5c0-.2.1-.3.3-.3h9.4c.2 0 .3.1.3.3v2.5c0 .2.1.3.3.3H19c.2 0 .3-.1.3-.3v-2.5c0-.3 0-.2.2-.4.3-.2.6-.4.8-.6.1-.1.1-.1.1-.2v-3.3c0-.1 0-.1-.1-.2-.2-.3-.5-.6-.7-.9-.3-.4-.4-.3.1-.3h1.8c.1 0 .3-.1.3-.3 0-.5.1-.9.1-1.4 0-.1-.1-.3-.3-.3zm-17.8.9c.4-1.2.7-2.3 1.1-3.5.6-1.9.4-1.8 2.4-1.8h7.4c1.9 0 1.8-.1 2.4 1.8.3 1.1.7 2.3 1 3.4.2.6.3.5-.3.5H4c-.4 0-.3 0-.2-.4zM6.6 16c0 .1-.1.1-.1.1H2.7c-.1 0-.1-.1-.1-.1v-1.5c0-.1.1-.1.1-.1h3.8c.1 0 .1.1.1.1V16zm12.7-1.5V16c0 .1-.1.1-.1.1h-3.8c-.1 0-.1-.1-.1-.1v-1.5c0-.1.1-.1.1-.1h3.8c.1 0 .1 0 .1.1z"/></symbol><symbol viewBox="0 0 23 23" id="purse" xmlns="http://www.w3.org/2000/svg"><path d="M22 11.6V8.4c0-1.1-.9-2-1.9-2.1L17 1c-.3-.5-.7-.8-1.3-1-.5-.1-1.1-.1-1.6.2l-10.3 6H2.1C.9 6.3 0 7.2 0 8.4v12.5C0 22.1.9 23 2.1 23h17.8c1.2 0 2.1-.9 2.1-2.1v-3.2c.6-.2 1-.8 1-1.5v-3.1c0-.7-.4-1.3-1-1.5zm-3.2-5.3h-4.6l3.4-2 1.2 2zm-1.6-2.9l-5 2.9h-2.1l6.5-3.8.6.9zm-2.5-2.2c.3-.2.5-.2.8-.1.3.1.5.2.6.5L8 6.3H6l8.7-5.1zm7.3 15c0 .3-.2.5-.5.5h-3.7c-1.2 0-2.1-.9-2.1-2.1 0-1.2.9-2.1 2.1-2.1h3.7c.3 0 .5.2.5.5v3.2z"/></symbol><symbol viewBox="0 0 16.7 16.7" id="search" xmlns="http://www.w3.org/2000/svg"><path d="M6.7 13.3C3 13.3 0 10.3 0 6.7a6.7 6.7 0 0 1 13.4 0c-.1 3.6-3.1 6.6-6.7 6.6zM6.7 2C4.1 2 2 4.1 2 6.7s2.1 4.7 4.7 4.7 4.7-2.1 4.7-4.7S9.2 2 6.7 2z"/><path d="M9.9 11.332l1.414-1.414 5.374 5.374-1.414 1.414z"/></symbol><symbol viewBox="0 0 15.5 15" id="settings" xmlns="http://www.w3.org/2000/svg"><path d="M11 2.2H7.2c-.2 0-.4 0-.5.3-.3.6-.8 1-1.5 1S4 3.2 3.6 2.6c-.1-.3-.2-.4-.5-.4H.6c-.2 0-.4 0-.6-.3 0-.2 0-.3.1-.5s.3-.2.5-.2h2.5c.2 0 .4 0 .5-.3.3-.6.8-1 1.5-1s1.2.3 1.5.9c.2.4.4.4.6.4H15c.3 0 .5.2.5.5s-.2.5-.5.5h-4zM4.7 8H.6C.2 8 0 7.8 0 7.5c0-.4.3-.5.6-.5h7.9c.3 0 .5-.1.7-.4.3-.6.8-.8 1.5-.8s1.2.3 1.5.9c.1.2.2.3.5.3h2.2c.3 0 .6.1.6.5 0 .3-.2.5-.6.5h-2.3c-.2 0-.3 0-.4.2-.3.6-.8 1-1.5 1s-1.3-.3-1.6-1C9 8.1 8.9 8 8.7 8h-4zM9.4 13.8H4c-.3 0-.4.1-.5.3-.4.7-1.2 1.1-2 .9-.8-.2-1.3-.9-1.3-1.7 0-.8.5-1.5 1.3-1.7.8-.2 1.6.1 1.9.8.2.3.3.4.6.4h10.8c.3 0 .5.2.5.5s-.2.5-.5.5H9.4z"/></symbol><symbol viewBox="0 0 32.7 25" id="share" xmlns="http://www.w3.org/2000/svg"><path d="M19 6.9V0l13.7 11.4v.1L19 23.3v-6.6S6.9 14.4.1 25.1c0 0-.4-2.4.6-5.7C2.7 12 9.5 7.2 17.1 6.9H19zm0 0"/></symbol><symbol viewBox="0 0 15.7 15" id="star" xmlns="http://www.w3.org/2000/svg"><path d="M7.9 11.5l4.9 3.5L11 9.2l4.8-3.5-6 .1L7.9 0l-2 5.8L0 5.7l4.8 3.5L3 15l4.9-3.5z"/></symbol></svg>