<?xml version="1.0" encoding="utf-8"?><svg xmlns="http://www.w3.org/2000/svg" xmlns:xlink="http://www.w3.org/1999/xlink"><symbol viewBox="0 0 9.6 16.4" id="arr-back" xmlns="http://www.w3.org/2000/svg"><path d="M8.2 16.4L0 8.2 8.2 0l1.4 1.4-6.8 6.8L9.6 15z"/></symbol><symbol viewBox="0 0 9.6 16.4" id="arr-next" xmlns="http://www.w3.org/2000/svg"><path d="M1.4 16.4L0 15l6.8-6.8L0 1.4 1.4 0l8.2 8.2z"/></symbol><symbol viewBox="0 0 65.8 71.2" id="logo-part-1" xmlns="http://www.w3.org/2000/svg"><path d="M36.6 47.8c-2.7-5.6-4.6-11.5-1.9-18.6 2.4-6.2 8.1-10.6 14.7-11.7.8-.1 1.7-.2 2.4-.2 0-.1.1-.1.3 0 4.4-.1 8.5 1.4 11.8 3.9 2.3-1 2.6-3.7.4-6.7C57.8 5.7 47.4 0 35.6 0 15.9 0 0 15.9 0 35.6c0 19.7 15.9 35.6 35.6 35.6 5.2 0 9.7-2.1 13.6-5.4-5-5.4-9.3-11.3-12.6-18z"/><path d="M44.3 36.3c-.1 4.3 3.4 8.3 8.5 8.1 3.8-.1 7.6-3.5 7.6-8.1 0-4.2-3.7-8-8.1-8-4.3.1-8 3.7-8 8z"/></symbol><symbol viewBox="0 0 104.8 32.3" id="logo-part-2" xmlns="http://www.w3.org/2000/svg"><path d="M20.5 23.2c0 2.8-1 5.1-3.1 6.7-2 1.6-4.9 2.4-8.5 2.4-3.3 0-6.3-.6-8.9-1.9v-6.2c2.1.9 3.9 1.6 5.4 2s2.8.6 4 .6c1.5 0 2.6-.3 3.4-.8.8-.6 1.2-1.4 1.2-2.5 0-.6-.2-1.2-.5-1.6-.3-.5-.8-.9-1.5-1.4-.7-.4-2-1.2-4.1-2.1-1.9-.9-3.4-1.8-4.3-2.6-1-.8-1.7-1.8-2.3-2.9C.7 11.7.4 10.4.4 9c0-2.8.9-5 2.8-6.5C5.1.8 7.7 0 11 0c1.6 0 3.2.2 4.7.6 1.5.4 3 .9 4.6 1.6l-2.1 5.2C16.5 6.7 15.1 6.3 14 6c-1.1-.3-2.2-.4-3.2-.4-1.3 0-2.2.3-2.9.9-.7.6-1 1.4-1 2.3 0 .6.1 1.1.4 1.5s.7.9 1.3 1.3c.6.4 2 1.1 4.2 2.2 2.9 1.4 4.9 2.8 6 4.2 1.1 1.4 1.7 3.1 1.7 5.2zM46.7 10.3c0 3.4-1.1 6-3.2 7.7-2.1 1.8-5.1 2.7-9 2.7h-2.9v11.2H25V.5h10c3.8 0 6.7.8 8.7 2.5 2 1.6 3 4 3 7.3zm-15 5h2.2c2 0 3.6-.4 4.6-1.2 1-.8 1.5-2 1.5-3.5 0-1.6-.4-2.7-1.3-3.5-.9-.7-2.2-1.1-4-1.1h-3v9.3zM80 16.1c0 5.2-1.3 9.2-3.9 12-2.6 2.8-6.3 4.2-11.1 4.2s-8.5-1.4-11.1-4.2c-2.6-2.8-3.9-6.8-3.9-12s1.3-9.2 3.9-12C56.6 1.4 60.3 0 65.1 0c4.8 0 8.5 1.4 11.1 4.2 2.6 2.7 3.8 6.7 3.8 11.9zm-22.9 0c0 3.5.7 6.1 2 7.9 1.3 1.8 3.3 2.7 6 2.7 5.3 0 8-3.5 8-10.6S70.5 5.5 65.2 5.5c-2.6 0-4.6.9-6 2.7-1.4 1.8-2.1 4.4-2.1 7.9zM96.2 31.9h-6.7V6H81V.5h23.7V6h-8.5v25.9z"/></symbol><symbol viewBox="0 0 16.7 16.7" id="serch" xmlns="http://www.w3.org/2000/svg"><path d="M6.7 13.3C3 13.3 0 10.3 0 6.7a6.7 6.7 0 0 1 13.4 0c-.1 3.6-3.1 6.6-6.7 6.6zM6.7 2C4.1 2 2 4.1 2 6.7s2.1 4.7 4.7 4.7 4.7-2.1 4.7-4.7S9.2 2 6.7 2z"/><path d="M9.9 11.332l1.414-1.414 5.374 5.374-1.414 1.414z"/></symbol></svg>